<svg width="292" height="138" viewBox="0 0 292 138" fill="none" xmlns="http://www.w3.org/2000/svg">
<g clip-path="url(#clip0_229_113)">
<path d="M146 27.2368C127.327 27.2368 111.252 16.0153 104.2 0H92.3961C96.1045 11.1199 103.207 21.2883 113.311 29.6192C115.15 31.1372 116.873 32.7278 118.472 34.3765C106.376 41.1095 97.0024 52.1349 92.4545 65.3684H104.193C108.449 55.7157 115.982 47.8061 125.392 43.0415C129.83 49.9197 132.458 57.4952 133.079 65.3684H144.058C143.474 56.166 140.693 47.3267 135.919 39.2646C139.167 38.5311 142.532 38.1316 146 38.1316C149.467 38.1316 152.833 38.5311 156.081 39.2646C151.307 47.3267 148.526 56.1733 147.942 65.3684H158.921C159.541 57.4952 162.169 49.9197 166.608 43.0487C176.018 47.8061 183.551 55.7157 187.807 65.3684H199.545C194.998 52.1349 185.632 41.1095 173.528 34.3765C175.127 32.7278 176.85 31.1372 178.689 29.6192C188.793 21.2956 195.895 11.1272 199.604 0H187.8C180.748 16.0153 164.666 27.2368 146 27.2368Z" fill="#F5FFFF"/>
<path d="M282.678 101.684C288.408 98.2488 292 93.0629 292 87.158H283.24C283.24 92.5763 275.057 97.3264 265.72 97.3264C256.383 97.3264 248.2 92.5763 248.2 87.158H239.44C239.44 93.0629 243.032 98.2488 248.762 101.684C243.032 105.12 239.44 110.306 239.44 116.211H248.2C248.2 110.792 256.383 106.042 265.72 106.042C275.057 106.042 283.24 110.792 283.24 116.211H292C292 110.306 288.408 105.12 282.678 101.684Z" fill="#F5FFFF"/>
<path d="M23.068 110.77L11.5705 87.158H0L15.9213 116.211H30.2074L45.9681 87.158H34.5582L23.068 110.77Z" fill="#F5FFFF"/>
<path d="M59.9184 103.958H85.3662V99.4109H59.9184V95.7793H91.031V87.158H49.6619V116.211H91.1113V107.589H59.9184V103.958Z" fill="#F5FFFF"/>
<path d="M134.875 88.0876C132.889 87.4703 130.655 87.158 128.166 87.158H96.4403V116.211H106.697V108.04H122.742C124.932 108.04 126.553 108.134 127.604 108.316C128.655 108.497 129.341 108.824 129.655 109.289C129.969 109.761 130.13 110.444 130.13 111.352V116.211H140.386V109.993C140.386 108.664 140.036 107.64 139.342 106.928C138.642 106.216 137.415 105.723 135.649 105.454C135.211 105.388 134.722 105.323 134.189 105.272C134.451 105.221 134.714 105.192 134.977 105.134C136.211 104.866 137.298 104.422 138.262 103.82C139.218 103.217 139.97 102.367 140.518 101.278C141.065 100.188 141.335 98.8153 141.335 97.1448C141.335 94.6317 140.751 92.6489 139.591 91.1963C138.43 89.7436 136.853 88.705 134.868 88.0876H134.875ZM106.704 100.457V96.2369H128.166C128.991 96.2369 129.677 96.3822 130.239 96.6654C130.801 96.956 131.079 97.4934 131.079 98.2779C131.079 99.1276 130.801 99.7014 130.239 99.9992C129.677 100.304 128.991 100.457 128.166 100.457H106.704Z" fill="#F5FFFF"/>
<path d="M145.365 95.7793H161.571V116.211H171.835V95.7793H188.048V87.158H145.365V95.7793Z" fill="#F5FFFF"/>
<path d="M202.407 107.589V103.958H227.855V99.4109H202.407V95.7793H233.52V87.158H192.151V116.211H233.6V107.589H202.407Z" fill="#F5FFFF"/>
<path d="M73.1095 127.831H80.8621V129.851H73.1095V127.831ZM75.6791 125.115H78.2925V137.76H75.6791V125.115Z" fill="#F5FFFF"/>
<path d="M107.551 134.463H110.084C109.974 135.146 109.69 135.748 109.23 136.279C108.77 136.809 108.142 137.23 107.354 137.535C106.565 137.84 105.602 137.993 104.463 137.993C103.193 137.993 102.069 137.789 101.09 137.383C100.112 136.976 99.353 136.388 98.7982 135.618C98.2507 134.848 97.9733 133.911 97.9733 132.821C97.9733 131.732 98.2434 130.795 98.7763 130.011C99.3092 129.233 100.061 128.638 101.017 128.224C101.974 127.81 103.098 127.606 104.383 127.606C105.667 127.606 106.784 127.81 107.653 128.224C108.522 128.638 109.171 129.262 109.588 130.09C110.011 130.926 110.186 131.986 110.12 133.279H100.601C100.667 133.787 100.857 134.245 101.171 134.659C101.485 135.073 101.915 135.4 102.455 135.639C102.996 135.879 103.645 136.003 104.39 136.003C105.222 136.003 105.916 135.857 106.47 135.574C107.025 135.291 107.383 134.92 107.544 134.463H107.551ZM104.259 129.589C103.295 129.589 102.514 129.8 101.908 130.221C101.302 130.642 100.915 131.158 100.74 131.768H107.529C107.463 131.1 107.142 130.57 106.573 130.178C106.003 129.785 105.229 129.589 104.251 129.589H104.259Z" fill="#F5FFFF"/>
<path d="M128.137 127.831H130.75V137.76H128.137V127.831ZM135.386 127.614C135.999 127.614 136.568 127.693 137.094 127.853C137.62 128.013 138.072 128.26 138.459 128.594C138.846 128.928 139.145 129.349 139.364 129.865C139.576 130.381 139.686 130.991 139.686 131.695V137.767H137.072V132.153C137.072 131.31 136.868 130.7 136.459 130.308C136.05 129.916 135.386 129.72 134.459 129.72C133.765 129.72 133.13 129.851 132.568 130.119C132.006 130.388 131.553 130.722 131.203 131.129C130.852 131.536 130.655 131.957 130.597 132.4L130.575 131.383C130.641 130.918 130.794 130.461 131.035 130.025C131.276 129.582 131.597 129.182 132.006 128.819C132.415 128.456 132.897 128.166 133.459 127.948C134.021 127.737 134.656 127.628 135.364 127.628L135.386 127.614Z" fill="#F5FFFF"/>
<path d="M158.118 127.831H160.731V137.76H158.118V127.831ZM165.367 127.614C165.98 127.614 166.549 127.693 167.075 127.853C167.601 128.013 168.053 128.26 168.44 128.594C168.827 128.928 169.126 129.349 169.345 129.865C169.557 130.381 169.667 130.991 169.667 131.695V137.767H167.053V132.153C167.053 131.31 166.849 130.7 166.44 130.308C166.031 129.916 165.367 129.72 164.44 129.72C163.746 129.72 163.111 129.851 162.549 130.119C161.987 130.388 161.534 130.722 161.184 131.129C160.834 131.536 160.636 131.957 160.578 132.4L160.556 131.383C160.622 130.918 160.775 130.461 161.016 130.025C161.257 129.582 161.578 129.182 161.987 128.819C162.396 128.456 162.878 128.166 163.44 127.948C164.002 127.737 164.637 127.628 165.345 127.628L165.367 127.614Z" fill="#F5FFFF"/>
<path d="M191.092 123.474V125.754H188.063V123.474H191.092ZM188.26 127.832H190.873V137.76H188.26V127.832Z" fill="#F5FFFF"/>
<path d="M209.152 134.463H211.561C211.707 134.913 212.014 135.283 212.474 135.574C212.934 135.857 213.54 136.002 214.291 136.002C214.802 136.002 215.197 135.959 215.474 135.864C215.759 135.77 215.949 135.632 216.058 135.458C216.168 135.276 216.219 135.073 216.219 134.848C216.219 134.572 216.131 134.354 215.956 134.201C215.781 134.049 215.511 133.925 215.153 133.831C214.788 133.736 214.328 133.649 213.766 133.569C213.204 133.475 212.664 133.366 212.138 133.228C211.612 133.097 211.152 132.916 210.751 132.698C210.349 132.48 210.028 132.197 209.795 131.855C209.561 131.514 209.444 131.1 209.444 130.606C209.444 130.112 209.561 129.698 209.795 129.328C210.028 128.957 210.357 128.645 210.78 128.391C211.204 128.136 211.7 127.948 212.269 127.81C212.839 127.679 213.452 127.614 214.109 127.614C215.102 127.614 215.919 127.759 216.576 128.042C217.233 128.325 217.722 128.725 218.051 129.24C218.379 129.756 218.54 130.344 218.54 131.005H216.233C216.124 130.512 215.912 130.156 215.591 129.938C215.27 129.72 214.773 129.611 214.102 129.611C213.43 129.611 212.948 129.713 212.612 129.909C212.277 130.105 212.109 130.381 212.109 130.729C212.109 131.005 212.211 131.223 212.423 131.376C212.627 131.528 212.941 131.652 213.35 131.746C213.759 131.841 214.27 131.942 214.883 132.044C215.408 132.153 215.905 132.269 216.379 132.407C216.854 132.538 217.277 132.712 217.657 132.916C218.029 133.119 218.328 133.395 218.547 133.736C218.766 134.078 218.876 134.506 218.876 135.022C218.876 135.661 218.693 136.199 218.321 136.642C217.956 137.085 217.43 137.419 216.744 137.651C216.058 137.884 215.248 138 214.291 138C213.445 138 212.722 137.913 212.116 137.731C211.51 137.55 210.999 137.317 210.598 137.034C210.196 136.751 209.882 136.438 209.663 136.111C209.444 135.785 209.291 135.472 209.211 135.182C209.13 134.891 209.101 134.652 209.13 134.463H209.152Z" fill="#F5FFFF"/>
</g>
<defs>
<clipPath id="clip0_229_113">
<rect width="292" height="138" fill="white"/>
</clipPath>
</defs>
</svg>
