<svg width="134" height="78" viewBox="0 0 134 78" fill="none" xmlns="http://www.w3.org/2000/svg">
<g clip-path="url(#clip0_229_91)">
<path d="M67 32.5C44.8857 32.5 25.849 19.11 17.4978 0H3.51855C7.9103 13.2687 16.322 25.402 28.2869 35.3427C30.4655 37.154 32.5058 39.052 34.3991 41.0193C20.074 49.0533 8.97365 62.2093 3.58772 78H17.4891C22.5293 66.482 31.4511 57.044 42.5947 51.3587C47.8509 59.566 50.9632 68.6053 51.698 78H64.7004C64.0088 67.0193 60.7149 56.472 55.061 46.852C58.9081 45.9767 62.8935 45.5 67 45.5C71.1064 45.5 75.0918 45.9767 78.9389 46.852C73.285 56.472 69.9912 67.028 69.2996 78H82.3019C83.0368 68.6053 86.149 59.566 91.4053 51.3673C102.549 57.044 111.471 66.482 116.511 78H130.412C125.026 62.2093 113.935 49.0533 99.6009 41.0193C101.494 39.052 103.534 37.154 105.713 35.3427C117.678 25.4107 126.09 13.2773 130.481 0H116.502C108.151 19.11 89.1057 32.5 67 32.5Z" fill="#F5FFFF"/>
</g>
<defs>
<clipPath id="clip0_229_91">
<rect width="134" height="78" fill="white"/>
</clipPath>
</defs>
</svg>
